<?xml version="1.0" encoding="utf-8"?>
<!-- Generator: Adobe Illustrator 25.0.0, SVG Export Plug-In . SVG Version: 6.00 Build 0)  -->
<svg version="1.1" id="Layer_1" xmlns="http://www.w3.org/2000/svg" xmlns:xlink="http://www.w3.org/1999/xlink" x="0px" y="0px"
	 viewBox="0 0 301.85 165.24" style="enable-background:new 0 0 301.85 165.24;" xml:space="preserve">
<style type="text/css">
	.st0{fill:#000000;}
	.st1{fill-rule:evenodd;clip-rule:evenodd;fill:#000000;}
</style>
<g>
	<path class="st0" d="M118.51,53.38c-1.49-0.31-2.62,0.35-2.51,1.47c0.1,1.12,1.4,2.29,2.89,2.6c7.29,1.53,13.56,1.73,18.3,0.67
		c3.23-0.72,5.75-2.03,7.42-3.9c1.68-1.89,2.48-4.33,2.24-7.31c-0.16-2.05-0.82-4.34-2.01-6.88c5.44,0.66,9.86-0.75,12.58-3.01
		c1.15-0.95,2-2.07,2.52-3.27c0.54-1.26,0.71-2.6,0.44-3.94c-0.38-1.89-1.53-3.72-3.56-5.23c7.12-3.71,10.72-7.72,11.68-11.24
		c1.11-4.07-1.03-7.66-5.34-9.92c-3.73-1.96-9.12-2.67-15.22-1.39c-12.99,2.72-30.6,14.68-42.99,43.74
		c-0.41,0.95,0.43,2.27,1.87,2.94c1.44,0.67,2.93,0.45,3.34-0.5c11.97-28.05,28.56-39.52,40.71-42.06
		c4.59-0.96,8.25-0.63,10.48,0.54c1.65,0.86,2.39,2.49,1.84,4.53c-0.9,3.31-4.9,7.28-13.19,10.99l0,0c-0.44,0.2-0.74,0.54-0.81,1.01
		c-0.16,1.05,0.92,2.32,2.41,2.82c2.14,0.72,3.21,1.84,3.44,2.98c0.15,0.73,0.04,1.52-0.29,2.28c-0.36,0.83-0.98,1.62-1.82,2.32
		c-2.48,2.06-6.81,3.17-12.03,1.61l0,0.01c-0.46-0.14-0.94-0.19-1.38-0.14c-1.33,0.16-1.84,1.23-1.15,2.38
		c1.92,3.2,2.91,5.95,3.09,8.25c0.17,2.21-0.4,4-1.63,5.38c-1.24,1.39-3.15,2.36-5.61,2.92C130.24,54.91,124.86,54.71,118.51,53.38"
		/>
	<path class="st0" d="M53.77,51.99c1.49-0.31,2.62,0.35,2.51,1.47c-0.1,1.12-1.4,2.29-2.89,2.6c-7.29,1.53-13.56,1.73-18.3,0.67
		c-3.23-0.72-5.75-2.03-7.42-3.9c-1.68-1.89-2.48-4.33-2.24-7.31c0.16-2.05,0.82-4.34,2.01-6.88c-5.44,0.66-9.86-0.75-12.58-3.01
		c-1.15-0.95-2-2.07-2.52-3.27c-0.54-1.26-0.71-2.6-0.44-3.94c0.38-1.89,1.53-3.72,3.56-5.23C8.34,19.49,4.74,15.48,3.78,11.96
		C2.68,7.89,4.81,4.3,9.13,2.03c3.73-1.96,9.12-2.67,15.22-1.39c12.99,2.72,30.6,14.68,42.99,43.74c0.41,0.95-0.43,2.27-1.87,2.94
		c-1.44,0.67-2.93,0.45-3.34-0.5C50.17,18.77,33.57,7.31,21.42,4.76C16.83,3.8,13.17,4.14,10.94,5.3C9.29,6.17,8.55,7.8,9.1,9.83
		C10,13.15,14,17.11,22.3,20.82l0,0c0.44,0.2,0.74,0.54,0.81,1.01c0.16,1.05-0.92,2.32-2.41,2.82c-2.14,0.72-3.21,1.84-3.44,2.98
		c-0.15,0.73-0.04,1.52,0.29,2.28c0.36,0.83,0.98,1.62,1.82,2.32c2.48,2.06,6.81,3.17,12.03,1.61l0,0c0.46-0.14,0.94-0.19,1.38-0.14
		c1.33,0.16,1.84,1.23,1.15,2.38c-1.92,3.2-2.91,5.95-3.09,8.25c-0.17,2.21,0.4,4,1.63,5.38c1.24,1.39,3.15,2.36,5.61,2.92
		C42.04,53.52,47.42,53.32,53.77,51.99"/>
	<path class="st1" d="M86.1,12.2c14.02,0,25.39,3.03,25.39,6.77c0,3.74-11.37,6.77-25.39,6.77c-14.02,0-25.39-3.03-25.39-6.77
		C60.71,15.23,72.08,12.2,86.1,12.2 M86.1,14.71c8.83,0,15.99,1.91,15.99,4.26c0,2.35-7.16,4.26-15.99,4.26
		c-8.83,0-15.99-1.91-15.99-4.26C70.12,16.61,77.28,14.71,86.1,14.71z"/>
	<path class="st1" d="M280.01,93.12c1.07,1.18,2.11,1.22,2.97,0.67c1.07-0.68,1.86-2.26,2.07-3.64c0.46-3.16-0.15-7.38-0.38-9.18
		c-0.19-1.45-0.53-2.67-1.15-3.38c-0.94-1.06-2.29-1.41-3.37-0.2c-0.94,1.06-2.01,1.08-3.27,0.5c-4.98-2.32-10.83-1.43-14.87,1.39
		c-6.17,4.3-4.42,11.12-0.55,16.62c2.49,3.54,5.52,6.98,8.58,10.43c4.76,5.36,3.47,11.02-0.94,14.58
		c-5.24,4.23-13.12,4.42-18.21-0.11c-3.79-3.38-3.13-6.32-1.44-10.35c1.02-2.44,2.88-4.97-0.87-5.71c-1.35-0.27-2.69,0.18-4.06,1.37
		c-4.91,4.27-5.94,11.55-1.91,16.7c1.23,1.58,2.88,2.87,4.94,3.89c6.09,3.03,15.41,2.85,21.76,0.53c3.25-1.19,6.1-3.04,8.48-5.67
		c4.57-5.07,6.05-11.65,2.96-17.88c-2.12-4.28-5.83-8.46-10.01-12.6c-1.62-1.61-3.88-3.09-3.7-5.67c0.3-4.39,6.15-3.55,8.77-2.14
		C281.38,86.3,276.97,89.74,280.01,93.12 M176.95,86.74c-1.6,1.02-3.18,1.85-4.74,2.45c-2.84,1.1-5.28-2.26-3.02-4.37
		c2.82-2.64,6.68-4.86,11.58-6.66c2.87-1.06,6.22-1.99,8.08,0.41c1.23,1.58,0.64,2.29-0.02,3.98c-3.15,8.11-6.3,16.22-9.45,24.34
		c-6.2,15.97-12.29,38.39-29.5,46.08c-4.86,2.17-11.09,1.96-14.87-1.53c-4.58-4.23-4.34-13.46,0.86-17.15
		c1.15-0.81,2.75,0.18,2.99,1.46c2.35,12.57,7.84,10.94,15.56,2.22c7.83-8.84,12.8-22.5,16.87-33.36
		c2.19-5.84,4.12-11.56,6.23-17.36C178,85.93,178.12,86,176.95,86.74z M190.43,117.26c1.74,4.81,5.3,8.08,9.77,10.57
		c3.95,2.2,12.6,1.69,16.96,0.25c20.1-6.65,37.79-39.52,11.08-50.54c-2.93-1.21-7.99-1.17-11.04-0.35
		C201.66,81.34,184.18,100.01,190.43,117.26z M216.72,121.48c-3.39,1.86-8.6,2.01-11.84-0.34c-1.88-1.36-3.03-3.24-3.8-5.37
		c-4.23-11.61,3.76-26.78,14.54-31.66c2.44-1.1,6.68-1.27,8.93,0.2C237.31,92.67,227.62,115.52,216.72,121.48z M186.13,61.8
		c0.85,0.87,2.23,1.14,2.91,2.12c1.29,1.87-1.26,4.69-3.36,5.25c-3.95,1.04-3.34,3.87-0.05,4.25c2.39,0.28,4.59-0.68,6.5-2.02
		c5.26-3.7,9.46-11.38,4.47-17C193.04,50.38,184.52,60.13,186.13,61.8z M118.12,87.38c-0.62,0.48-1.44,0.93-2.45,1.37
		c-2.55,1.11-5.62-1.1-3.13-3.41c4.37-4.06,11.22-8.33,17.03-8.28c2.84,0.03,3.28,1.64,2.32,6.33c3.3-1.96,6.72-3.59,10.28-4.76
		c3.57-1.18,7.08-1.94,10.85-1.58c10.62,1,1.43,17.96-0.6,22.75c-1.94,4.57-3.8,8.89-5.5,12.51c-1.06,2.65-2.12,5.29-3.18,7.94
		c0.04,0.83,1.91,0.22,5.12-1.47c2.84-1.49,5.44,1.3,3.14,3.6c-1.52,1.53-3.91,2.89-6.66,4.18c-1.61,0.76-5.72,2.24-8.58,1.94
		c-6.41-0.67-0.96-11.01,0.06-13.54c3.29-8.13,8.15-19.9,9.74-25.9c0.69-2.58,1.16-4.45-2.12-4.11c-5.38,0.56-12.65,5.43-16.03,9.67
		c-2.34,2.94-3.55,6.27-5.73,11.04c-1.21,2.64-2.42,5.28-3.62,7.92c-2.2,4.82-4.07,10.12-8.13,13.65c-0.88,0.76-1.6,1-2.42,1.07
		c-2.1,0.19-4.51,0.08-4.62-2.16c-0.2-4.12,4.6-12.27,6.24-16.37c0.81-2.03,1.63-4.06,2.44-6.08c2.12-5.18,4.23-10.35,6.35-15.53
		C119.34,87.14,119.31,86.46,118.12,87.38z M98.55,46.6c14.61,14,5.49,33.12-1.56,48.47c-2.63,6.41-5.25,12.81-7.88,19.22
		c-1.72,4.2,1.59,2,3.22,0.79c0.61-0.46,1.23-0.92,1.84-1.38c2.72-2.03,6.4,0.92,3.43,3.72c-4.24,3.98-15.4,11.43-20.15,9.89
		c-4.22-1.37-0.74-8.17,0.39-10.54c2.86-5.99,5.72-11.97,8.58-17.96c-10.63,4.99-22.72,4.37-34.14,4.68
		c-4,6.85-8.61,12.27-13.67,16.41c-8.78,7.18-19.98,11.24-31.43,10.02c-1.92-0.2-3.72-0.65-5.11-1.55c-2.68-1.72-2.9-5.43,0.21-6.97
		c2.82-1.39,4.99-0.99,7.45-0.13c7.72,2.7,15.61,0.69,22.04-4.05c4.43-3.26,7.68-6.97,9.89-11.07c0.74-1.37,0.93-1.9,0.37-1.93
		c-3.47-0.21-6.17,2.14-8.62,4.12c-10.26,8.3-4.32-12.01,12.26-12.37c2.02-0.04,1.83,0.06,2.69-1.77
		c7.12-15.14,12.49-33.6,23.1-44.58c3.45-3.57,7.33-6.42,12.25-7.38C89.75,41.04,94.38,43.26,98.55,46.6z M56.54,95.42
		c14.7-0.6,27.24,0.53,34.42-8.9c3.31-4.36,5.86-11.18,6.98-16.46c1.47-6.97-0.5-13.44-5.34-18.55c-2.99-3.16-6.56-4.76-10.3-3.55
		c-3.89,1.25-6.68,5.01-8.96,8.2C66.69,65.45,60.76,79.31,56.54,95.42z"/>
	<path class="st0" d="M266.75,159.25l-2.01,5.22c-0.11,0.28-0.41,0.47-0.91,0.59c-0.49,0.12-1.22,0.18-2.17,0.18
		c-0.49,0-0.89-0.02-1.18-0.06c-0.3-0.04-0.52-0.1-0.67-0.19c-0.15-0.09-0.23-0.2-0.24-0.33c-0.01-0.14,0.03-0.29,0.11-0.48
		l2.2-4.94c-0.16-0.07-0.3-0.17-0.44-0.3c-0.13-0.14-0.22-0.29-0.29-0.44l-5.69-13.54c-0.16-0.39-0.25-0.68-0.25-0.89
		c0-0.2,0.08-0.36,0.23-0.48c0.15-0.11,0.4-0.2,0.75-0.24c0.35-0.04,0.82-0.07,1.4-0.07c0.53,0,0.96,0.01,1.27,0.02
		c0.31,0.02,0.55,0.06,0.72,0.12c0.17,0.07,0.3,0.17,0.39,0.3c0.09,0.14,0.18,0.34,0.26,0.59l3.9,9.86h0.06l3.56-10.06
		c0.08-0.28,0.17-0.47,0.29-0.57c0.12-0.09,0.32-0.16,0.59-0.2c0.27-0.04,0.75-0.07,1.42-0.07c0.53,0,0.97,0.02,1.33,0.07
		c0.35,0.04,0.61,0.12,0.78,0.25c0.16,0.12,0.25,0.28,0.25,0.48c0,0.2-0.04,0.45-0.15,0.72L266.75,159.25z M248.79,151.42
		c0-0.63-0.05-1.23-0.16-1.81c-0.1-0.58-0.29-1.1-0.54-1.55c-0.26-0.45-0.6-0.81-1.01-1.08c-0.41-0.27-0.94-0.41-1.56-0.41
		c-0.31,0-0.61,0.04-0.91,0.12c-0.3,0.07-0.6,0.21-0.92,0.39c-0.32,0.19-0.64,0.43-0.98,0.73c-0.33,0.29-0.68,0.67-1.06,1.1v4.89
		c0.66,0.75,1.28,1.32,1.89,1.71c0.6,0.39,1.23,0.59,1.88,0.59c0.61,0,1.12-0.14,1.54-0.41c0.42-0.28,0.77-0.63,1.05-1.07
		c0.28-0.44,0.48-0.94,0.6-1.5C248.74,152.55,248.79,151.99,248.79,151.42z M253.64,151.13c0,1.31-0.16,2.49-0.48,3.53
		c-0.32,1.04-0.78,1.93-1.39,2.67c-0.61,0.74-1.35,1.31-2.23,1.7c-0.89,0.39-1.89,0.59-3.01,0.59c-0.56,0-1.08-0.05-1.56-0.14
		c-0.48-0.09-0.94-0.24-1.38-0.45c-0.44-0.21-0.87-0.47-1.3-0.79c-0.43-0.32-0.87-0.7-1.31-1.16v1.6c0,0.12-0.03,0.23-0.1,0.31
		c-0.07,0.08-0.18,0.15-0.34,0.2c-0.15,0.06-0.36,0.1-0.62,0.12c-0.26,0.02-0.58,0.03-0.94,0.03c-0.39,0-0.7-0.01-0.96-0.03
		c-0.25-0.02-0.46-0.06-0.61-0.12c-0.15-0.06-0.26-0.12-0.32-0.2c-0.06-0.08-0.1-0.19-0.1-0.31v-21.71c0-0.11,0.04-0.21,0.11-0.3
		c0.07-0.09,0.2-0.16,0.38-0.22c0.18-0.06,0.42-0.11,0.72-0.14c0.29-0.03,0.67-0.05,1.13-0.05c0.46,0,0.84,0.02,1.13,0.05
		c0.3,0.03,0.53,0.08,0.72,0.14c0.18,0.06,0.3,0.13,0.38,0.22c0.08,0.09,0.11,0.19,0.11,0.3v8.14c0.42-0.37,0.84-0.69,1.27-0.96
		c0.42-0.27,0.84-0.48,1.26-0.65c0.42-0.17,0.85-0.3,1.3-0.37c0.44-0.08,0.91-0.12,1.41-0.12c1.22,0,2.26,0.22,3.11,0.65
		c0.85,0.43,1.54,1.02,2.08,1.76c0.54,0.74,0.93,1.6,1.18,2.58C253.51,149,253.64,150.04,253.64,151.13z M227.74,152.43h-1.78
		c-0.75,0-1.4,0.05-1.93,0.15c-0.53,0.1-0.96,0.25-1.3,0.45c-0.34,0.2-0.58,0.44-0.73,0.72c-0.15,0.28-0.23,0.6-0.23,0.96
		c0,0.62,0.22,1.1,0.66,1.45c0.44,0.36,1.04,0.53,1.82,0.53c0.66,0,1.26-0.15,1.81-0.45c0.55-0.3,1.11-0.73,1.68-1.31V152.43z
		 M232.33,158.74c0,0.16-0.06,0.28-0.19,0.37c-0.12,0.08-0.32,0.15-0.58,0.19c-0.27,0.04-0.66,0.06-1.18,0.06
		c-0.56,0-0.96-0.02-1.22-0.06c-0.25-0.04-0.43-0.1-0.54-0.19c-0.1-0.09-0.16-0.21-0.16-0.37v-1.17c-0.68,0.65-1.46,1.16-2.32,1.52
		c-0.87,0.36-1.84,0.54-2.91,0.54c-0.88,0-1.68-0.1-2.42-0.3c-0.73-0.2-1.37-0.51-1.91-0.91c-0.54-0.4-0.96-0.9-1.25-1.49
		c-0.3-0.6-0.44-1.29-0.44-2.08c0-0.86,0.19-1.61,0.56-2.24c0.38-0.64,0.94-1.16,1.69-1.57c0.75-0.41,1.68-0.72,2.79-0.91
		c1.11-0.2,2.41-0.3,3.87-0.3h1.61v-0.89c0-0.46-0.05-0.87-0.16-1.21c-0.1-0.35-0.28-0.64-0.52-0.87c-0.24-0.23-0.56-0.4-0.96-0.51
		c-0.41-0.11-0.9-0.16-1.49-0.16c-0.78,0-1.48,0.07-2.09,0.23c-0.61,0.15-1.15,0.32-1.62,0.51c-0.47,0.19-0.86,0.35-1.18,0.51
		c-0.32,0.16-0.57,0.23-0.77,0.23c-0.13,0-0.25-0.03-0.36-0.11c-0.1-0.08-0.19-0.19-0.26-0.33c-0.06-0.14-0.12-0.32-0.16-0.52
		c-0.04-0.21-0.05-0.45-0.05-0.7c0-0.34,0.03-0.61,0.09-0.81c0.06-0.2,0.18-0.38,0.35-0.54c0.17-0.16,0.47-0.34,0.91-0.53
		c0.44-0.19,0.94-0.37,1.53-0.54c0.58-0.17,1.22-0.3,1.9-0.41c0.68-0.11,1.39-0.16,2.12-0.16c1.3,0,2.41,0.11,3.33,0.34
		c0.92,0.23,1.68,0.57,2.27,1.04c0.59,0.47,1.03,1.07,1.3,1.81c0.27,0.73,0.41,1.61,0.41,2.62V158.74z M209.66,151.42
		c0-0.63-0.05-1.23-0.16-1.81c-0.1-0.58-0.29-1.1-0.54-1.55c-0.26-0.45-0.59-0.81-1.01-1.08c-0.41-0.27-0.94-0.41-1.56-0.41
		c-0.31,0-0.61,0.04-0.91,0.12c-0.3,0.07-0.6,0.21-0.92,0.39c-0.32,0.19-0.64,0.43-0.98,0.73c-0.33,0.29-0.68,0.67-1.06,1.1v4.89
		c0.66,0.75,1.29,1.32,1.89,1.71c0.6,0.39,1.23,0.59,1.88,0.59c0.61,0,1.12-0.14,1.54-0.41c0.42-0.28,0.77-0.63,1.05-1.07
		c0.28-0.44,0.48-0.94,0.6-1.5C209.6,152.55,209.66,151.99,209.66,151.42z M214.5,151.13c0,1.31-0.16,2.49-0.48,3.53
		c-0.32,1.04-0.78,1.93-1.39,2.67c-0.61,0.74-1.35,1.31-2.23,1.7c-0.89,0.39-1.89,0.59-3.01,0.59c-0.56,0-1.08-0.05-1.56-0.14
		c-0.48-0.09-0.94-0.24-1.38-0.45c-0.44-0.21-0.87-0.47-1.3-0.79c-0.43-0.32-0.87-0.7-1.31-1.16v1.6c0,0.12-0.03,0.23-0.1,0.31
		c-0.07,0.08-0.18,0.15-0.34,0.2c-0.15,0.06-0.36,0.1-0.62,0.12c-0.26,0.02-0.58,0.03-0.94,0.03c-0.39,0-0.7-0.01-0.96-0.03
		c-0.25-0.02-0.46-0.06-0.61-0.12c-0.15-0.06-0.26-0.12-0.32-0.2c-0.06-0.08-0.1-0.19-0.1-0.31v-21.71c0-0.11,0.04-0.21,0.11-0.3
		c0.07-0.09,0.2-0.16,0.38-0.22c0.18-0.06,0.42-0.11,0.72-0.14c0.29-0.03,0.67-0.05,1.13-0.05c0.46,0,0.84,0.02,1.13,0.05
		c0.3,0.03,0.53,0.08,0.72,0.14c0.18,0.06,0.3,0.13,0.38,0.22c0.08,0.09,0.11,0.19,0.11,0.3v8.14c0.42-0.37,0.84-0.69,1.27-0.96
		c0.42-0.27,0.84-0.48,1.26-0.65c0.42-0.17,0.85-0.3,1.3-0.37c0.44-0.08,0.91-0.12,1.41-0.12c1.22,0,2.26,0.22,3.12,0.65
		c0.85,0.43,1.54,1.02,2.08,1.76c0.54,0.74,0.93,1.6,1.18,2.58C214.37,149,214.5,150.04,214.5,151.13z"/>
	<path class="st1" d="M301.85,82.58c0,3.09-2.5,5.55-5.66,5.55c-3.17,0-5.71-2.47-5.71-5.55c0-3.1,2.54-5.53,5.74-5.53
		C299.35,77.05,301.85,79.48,301.85,82.58 M291.9,82.58c0,2.45,1.85,4.41,4.33,4.41c2.39,0.02,4.21-1.96,4.21-4.38
		c0-2.45-1.82-4.45-4.29-4.45C293.75,78.16,291.9,80.15,291.9,82.58z M295.31,85.44h-1.28v-5.53c0.51-0.06,1.21-0.17,2.12-0.17
		c1.05,0,1.53,0.17,1.9,0.43c0.34,0.24,0.57,0.65,0.57,1.18c0,0.67-0.51,1.12-1.15,1.32l0,0.06c0.53,0.16,0.82,0.61,0.97,1.35
		c0.17,0.84,0.3,1.14,0.4,1.35h-1.35c-0.16-0.2-0.26-0.65-0.43-1.35c-0.1-0.59-0.43-0.84-1.14-0.84h-0.61V85.44z M295.35,82.34h0.59
		c0.71,0,1.3-0.23,1.3-0.82c0-0.49-0.38-0.84-1.19-0.84c-0.33,0-0.56,0.04-0.7,0.06V82.34z"/>
</g>
</svg>
